<?xml version="1.0" encoding="utf-8"?>
<!-- Generator: Adobe Illustrator 16.0.0, SVG Export Plug-In . SVG Version: 6.00 Build 0)  -->
<!DOCTYPE svg PUBLIC "-//W3C//DTD SVG 1.1//EN" "http://www.w3.org/Graphics/SVG/1.1/DTD/svg11.dtd">
<svg version="1.1" id="Layer_1" xmlns="http://www.w3.org/2000/svg" xmlns:xlink="http://www.w3.org/1999/xlink" x="0px" y="0px"
	 width="512px" height="512px" viewBox="0 0 512 512" enable-background="new 0 0 512 512" xml:space="preserve">
<g id="surface1">
	<path fill="#FFFFFF" d="M497,210h-45v-30H60v30H15c-8.285,0-15,6.715-15,15v30c0,36.215,25.809,66.512,60,73.48V435
		c0,24.852,20.148,45,45,45h302c24.852,0,45-20.148,45-45V328.48c34.191-6.969,60-37.266,60-73.48v-30
		C512,216.715,505.285,210,497,210z M60,297.238C42.578,291.023,30,274.531,30,255v-15h30V297.238z M359.031,335.574
		c-7.84,41.039-41.418,74.613-82.453,82.457c-73.84,14.109-137.719-49.766-123.609-123.609
		c7.844-41.039,41.418-74.609,82.453-82.453C309.266,197.859,373.141,261.734,359.031,335.574z M482,255
		c0,19.531-12.578,36.023-30,42.238V240h30V255z"/>
	<path fill="#FFFFFF" d="M45,150h422c8.285,0,15-6.715,15-15c0-24.852-20.148-45-45-45h-76V75c0-24.852-20.148-45-45-45H196
		c-24.852,0-45,20.148-45,45v15H75c-24.852,0-45,20.148-45,45C30,143.285,36.715,150,45,150z M181,75c0-8.277,6.723-15,15-15h120
		c8.277,0,15,6.723,15,15v15H181V75z"/>
	<path fill="#FFFFFF" d="M256,240c8.289,0,15,6.711,15,15v45h45c8.289,0,15,6.711,15,15C331,273.648,297.352,240,256,240z"/>
	<path fill="#FFFFFF" d="M316,330h-60c-8.285,0-15-6.715-15-15v-60c0-8.289,6.711-15,15-15c-47.859,0-85.398,45.066-72.398,94.988
		c6.562,25.219,27.191,45.848,52.41,52.41C285.934,400.398,331,362.859,331,315C331,323.289,324.289,330,316,330z"/>
</g>
</svg>
