<svg id="Capa_1" fill="#fff" enable-background="new 0 0 512 512" height="512" viewBox="0 0 512 512" width="512" xmlns="http://www.w3.org/2000/svg"><g><path d="m0 103.857v102.714h512v-102.714zm152.714 66.857h-68.857v-30h68.856v30zm137.715 0h-68.857v-30h68.857zm68.857 0v-30h68.856v30z"/><path d="m98.857 236.571h314.285v107.715h-314.285z"/><path d="m107 52h30v21.857h-30z"/><path d="m443.143 236.571v137.715h-374.286v-137.715h-68.857v186.391h512v-186.391z"/><path d="m349.775 452.962 29.519 59.038h63.849v-59.038z"/><path d="m68.857 452.962v59.038h63.849l29.519-59.038z"/><path d="m71.25 73.857v-43.857h101.5v43.857h30v-73.857h-161.5v73.857z"/><path d="m336.512 73.857v-43.857h101.5v43.857h30v-73.857h-161.5v73.857z"/><path d="m372.262 52h30v21.857h-30z"/></g></svg>