<svg id="Capa_1" fill="#fff" enable-background="new 0 0 512 512" height="512" viewBox="0 0 512 512" width="512" xmlns="http://www.w3.org/2000/svg"><g><path d="m151 0v121h210v-121h-30v45c0 8.276-6.724 15-15 15h-120c-8.276 0-15-6.724-15-15v-45z"/><path d="m226 421h60c24.814 0 45-20.186 45-45v-45h-150v45c0 24.814 20.186 45 45 45z"/><path d="m482 346v-60c0-24.814-20.186-45-45-45h-30c-24.034 0-46-19.611-46-45v-45h-210v45c0 24.814-21.186 45-46 45h-30c-24.814 0-45 20.186-45 45v60c0 8.276-6.724 15-15 15h-15v30h15c24.814 0 45-20.186 45-45v-60c0-8.276 6.724-15 15-15h15v105c0 74.443 61.557 136 136 136h60c74.443 0 136-61.557 136-136v-105h15c8.276 0 15 6.724 15 15v60c0 24.814 20.186 45 45 45h15v-30h-15c-8.276 0-15-6.724-15-15zm-121 30c0 41.353-33.647 75-75 75h-60c-41.353 0-75-33.647-75-75v-75h210z"/></g></svg>