<svg height="508.15985pt" fill="#fff" viewBox="0 0 508.15985 508.15985" width="508.15985pt" xmlns="http://www.w3.org/2000/svg"><path d="m278.457031 256.652344c0 14.882812-12.066406 26.945312-26.949219 26.945312-14.882812 0-26.945312-12.0625-26.945312-26.945312 0-14.882813 12.0625-26.949219 26.945312-26.949219 14.882813 0 26.949219 12.066406 26.949219 26.949219zm0 0"/><path d="m372.234375 123.261719-96.023437 95.933593c5.0625 3.355469 9.398437 7.691407 12.753906 12.753907l96.023437-95.933594 12.394531-12.484375c-1.976562-2.246094-4.132812-4.402344-6.195312-6.558594-2.066406-2.15625-4.3125-4.21875-6.558594-6.195312zm0 0"/><path d="m276.210938 294.109375 7.097656 7.003906c2.277344 2.261719 5.589844 3.136719 8.6875 2.296875 3.097656-.84375 5.511718-3.273437 6.332031-6.378906s-.078125-6.410156-2.355469-8.671875l-7.007812-7.007813c-3.355469 5.0625-7.691406 9.402344-12.753906 12.757813zm0 0"/><path d="m502.121094 236.351562-.539063-6.46875c-.359375-2.964843-.71875-5.839843-1.078125-8.710937-.179687-1.347656-.359375-2.695313-.628906-3.953125-.539062-3.414062-1.078125-6.738281-1.796875-9.972656-.105469-.753906-.257813-1.503906-.449219-2.242188-.71875-3.683594-1.617187-7.367187-2.515625-10.960937 0-.179688-.089843-.269531-.089843-.449219-5.925782-22.679688-14.996094-44.417969-26.949219-64.582031l-13.292969 13.292969c-4.234375 4.246093-9.273438 7.605468-14.820312 9.878906 3.878906 6.96875 7.386718 14.132812 10.507812 21.46875.359375.808594.628906 1.707031.988281 2.605468 1.078125 2.515626 2.066407 5.121094 2.964844 7.726563.628906 1.617187 1.078125 3.140625 1.617187 4.757813.628907 1.886718 1.257813 3.863281 1.886719 5.75.628907 1.886718 1.078125 3.773437 1.617188 5.75.449219 1.617187.898437 3.324218 1.257812 4.9375.539063 2.066406.988281 4.132812 1.4375 6.199218.359375 1.617188.71875 3.234375.988281 4.851563.359376 2.066406.808594 4.132812 1.167969 6.289062.269531 1.703125.449219 3.5.71875 5.207031.269531 1.976563.539063 3.953126.71875 6.019532.179688 2.066406.359375 4.222656.535157 6.378906.179687 1.613281.269531 3.320312.359374 4.9375.269532 3.863281.359376 7.726562.359376 11.589844-.011719 12.496094-1.121094 24.972656-3.320313 37.277344.023437.023437.035156.054687.035156.089843 0 .03125-.011719.066407-.035156.089844v.179687c-4.355469 24.507813-12.957031 48.066407-25.421875 69.613282.015625.183594-.015625.367187-.089844.539062-.15625.226563-.335937.4375-.539062.628906-12.441406 21.238282-28.382813 40.21875-47.15625 56.140626-.179688.179687-.269532.449218-.449219.628906-.179687.179687-.449219.179687-.628906.269531-79.84375 66.828125-196.101563 66.828125-275.941407 0-.179687-.089844-.449218-.179687-.628906-.269531-.179687-.089844-.269531-.449219-.449218-.628906-18.773438-15.921876-34.71875-34.902344-47.160157-56.140626-.199219-.191406-.378906-.402343-.539062-.628906-.070313-.171875-.101563-.355468-.089844-.539062-12.460937-21.546875-21.066406-45.105469-25.417969-69.613282v-.179687c-.023437-.023437-.039062-.058594-.039062-.089844 0-.035156.015625-.066406.039062-.089843-2.199218-12.304688-3.3125-24.78125-3.324218-37.277344 0-3.863282.089843-7.726563.359374-11.589844.089844-1.796875.269532-3.589844.359376-5.386719.179687-1.976562.269531-3.953125.539062-5.839843.179688-2.246094.539062-4.492188.808594-6.738282.179687-1.4375.359375-2.875.628906-4.398437.359375-2.335938.808594-4.761719 1.257812-7.1875.269532-1.167969.539063-2.425781.808594-3.683594.449219-2.425781 1.078125-4.851563 1.617188-7.273437.359375-1.257813.628906-2.425782.988281-3.59375.628906-2.335938 1.257813-4.671876 1.976563-7.007813.445312-1.347656.894531-2.695313 1.253906-4.042969.71875-2.15625 1.4375-4.308594 2.15625-6.375.71875-1.886718 1.4375-3.683594 2.15625-5.480468.628906-1.617188 1.167968-3.144532 1.886718-4.761719 1.4375-3.503907 3.054688-6.914063 4.671876-10.328125v-.089844c4.308593-8.699219 9.136718-17.125 14.460937-25.242188-12.15625-2.019531-23.371094-7.796874-32.066406-16.527343-14.207031 22.125-24.84375 46.34375-31.527344 71.769531-.191406.527344-.34375 1.066406-.449219 1.617188-.898437 3.324218-1.617187 6.738281-2.335937 10.152343-.269531.984375-.449219 1.972657-.628907 2.960938-.628906 3.144531-1.167968 6.289062-1.707031 9.34375-.269531 1.527343-.449219 3.054687-.628906 4.582031-.359375 2.691406-.808594 5.476562-1.078125 8.261719l-.539062 6.738281-.539063 6.464844c-.179687 4.492187-.359375 9.074218-.359375 13.65625 0 138.902344 112.605469 251.507812 251.507812 251.507812 138.90625 0 251.507813-112.605468 251.507813-251.507812 0-4.582032-.175781-9.164063-.355469-13.65625-.179687-2.242188-.359375-4.398438-.539062-6.644532zm0 0"/><path d="m352.742188 87.0625c-4.941407-3.046875-10.039063-5.835938-15.269532-8.355469h-.089844c-3.234374-1.527343-6.46875-3.050781-9.792968-4.398437l-.089844-.089844-6.109375 16.707031c-1.105469 3.015625-3.738281 5.210938-6.902344 5.761719-3.167969.550781-6.386719-.632812-8.445312-3.097656-2.058594-2.46875-2.644531-5.847656-1.539063-8.863282l6.109375-16.617187c-.71875-.179687-1.347656-.449219-2.066406-.628906-1.796875-.539063-3.59375-1.078125-5.390625-1.527344-1.523438-.449219-2.960938-.808594-4.398438-1.167969-1.886718-.449218-3.863281-.898437-5.839843-1.347656l-4.222657-.808594c-1.976562-.449218-3.953124-.808594-5.925781-1.078125-1.527343-.269531-3.054687-.449219-4.671875-.628906-1.796875-.269531-3.683594-.539063-5.570312-.71875-1.886719-.179687-3.953125-.359375-5.929688-.539063-1.4375-.089843-2.960937-.269531-4.488281-.359374h-1.617187v17.699218c0 4.957032-4.023438 8.980469-8.984376 8.980469-4.960937 0-8.980468-4.023437-8.980468-8.980469v-17.699218h-1.617188c-1.617187.089843-3.324218.269531-4.941406.359374-1.796875.179688-3.59375.269532-5.390625.449219l-6.195313.808594-3.953124.539063c-2.246094.359374-4.402344.808593-6.558594 1.257812-1.167969.179688-2.335938.359375-3.414063.628906-2.242187.449219-4.488281.988282-6.734375 1.527344-1.078125.269531-2.15625.628906-3.324218.898438-2.066407.539062-4.222657 1.167968-6.378907 1.796874l-1.617187.539063 6.109375 16.617187c1.109375 3.015626.519531 6.394532-1.539063 8.863282-2.058594 2.464844-5.277344 3.648437-8.441406 3.097656-3.167969-.550781-5.800781-2.746094-6.90625-5.761719l-6.109375-16.707031c-.089844.089844-.179687.089844-.359375.179688-3.140625 1.347656-6.375 2.78125-9.519531 4.308593-11.789063 5.738281-22.984375 12.628907-33.414063 20.570313l113.089844 113.089844c2.046875-.347657 4.117188-.558594 6.195312-.628907 2.078126.070313 4.148438.28125 6.199219.628907l113.089844-113.089844c-5.761719-4.4375-11.792969-8.519532-18.054687-12.214844zm0 0"/><path d="m123.867188 116.34375c-1.710938 2.46875-3.636719 4.78125-5.746094 6.917969-2.148438 2.132812-4.496094 4.058593-7.007813 5.75l102.9375 102.9375c3.355469-5.0625 7.695313-9.398438 12.757813-12.753907zm0 0"/><path d="m314.476562 13.136719c-.089843 0-.179687-.089844-.269531-.089844-3.683593-.898437-7.367187-1.796875-11.140625-2.605469-.628906-.089844-1.347656-.269531-2.0625-.359375-3.324218-.71875-6.648437-1.257812-10.0625-1.796875-1.257812-.269531-2.605468-.359375-3.863281-.539062-2.964844-.449219-5.835937-.808594-8.800781-1.167969l-6.378906-.539063-6.738282-.539062c-4.578125-.179688-9.070312-.359375-13.652344-.359375-4.582031 0-9.160156.179687-13.652343.359375l-6.46875.539062-6.734375.539063c-2.785156.269531-5.570313.71875-8.355469 1.078125-1.4375.179688-2.964844.359375-4.402344.628906-3.140625.539063-6.285156 1.078125-9.429687 1.707032l-2.964844.539062c-3.414062.808594-6.828125 1.527344-10.238281 2.425781-.449219.089844-.988281.269531-1.527344.359375-25.414063 6.769532-49.625 17.4375-71.769531 31.617188 8.726562 8.699218 14.507812 19.914062 16.527344 32.070312 8.101562-5.34375 16.53125-10.175781 25.238281-14.464844h.089843c3.414063-1.707031 6.828126-3.234374 10.332032-4.667968 1.617187-.71875 3.144531-1.257813 4.671875-1.886719 1.882812-.71875 3.769531-1.4375 5.566406-2.15625 2.066406-.71875 4.132813-1.4375 6.289063-2.066406 1.347656-.449219 2.785156-.898438 4.132812-1.347657 2.335938-.71875 4.578125-1.347656 6.914062-1.976562 1.257813-.359375 2.515626-.628906 3.773438-.988281 2.335938-.628907 4.761719-1.167969 7.097656-1.617188l3.949219-.808593c2.335937-.449219 4.671875-.898438 7.007813-1.257813 1.527343-.269531 2.964843-.449219 4.492187-.628906 2.246094-.269531 4.402344-.628907 6.554687-.808594 2.15625-.179687 4.042969-.359375 6.019532-.539063 1.796875-.089843 3.503906-.269531 5.300781-.359374 3.863281-.269532 7.722656-.359376 11.585937-.359376 3.863282 0 7.726563.089844 11.589844.359376 1.707032.089843 3.320313.179687 5.027344.359374 2.066406.179688 4.222656.269532 6.289062.539063 2.066407.269531 4.132813.449219 6.109376.71875 1.707031.269531 3.410156.449219 5.117187.71875 2.15625.359375 4.3125.808594 6.46875 1.167969 1.527344.269531 3.054687.628906 4.582031.898437 2.15625.539063 4.3125.988281 6.375 1.527344 1.617188.359375 3.144532.808594 4.761719 1.257813 1.976563.539062 3.953125 1.078124 5.929687 1.707031 1.796876.539062 3.59375 1.078125 5.390626 1.707031 1.792968.628906 3.410156 1.078125 5.117187 1.707031 2.425781.898438 4.761719 1.796875 7.097656 2.695313 1.078125.449218 2.15625.898437 3.324219 1.347656 3.503906 1.523438 7.09375 3.050781 10.507812 4.757812h.089844c3.59375 1.796876 7.1875 3.683594 10.691406 5.660157 2.273438-5.546875 5.632813-10.585938 9.878907-14.820313l13.292969-13.292968c-20.1875-11.96875-41.957032-21.039063-64.671876-26.949219zm0 0"/><path d="m308.726562 275.695312c7.738282 7.691407 10.050782 19.304688 5.851563 29.375-4.199219 10.070313-14.074219 16.601563-24.984375 16.523438-7.09375.0625-13.921875-2.71875-18.953125-7.722656l-12.933594-12.9375c-2.050781.347656-4.121093.558594-6.199219.628906-2.078124-.070312-4.148437-.28125-6.195312-.628906l-12.847656 12.9375c-10.539063 10.539062-27.632813 10.539062-38.175782 0-10.539062-10.542969-10.539062-27.636719 0-38.175782l12.9375-12.847656c-.34375-2.050781-.554687-4.121094-.628906-6.195312.074219-2.078125.285156-4.148438.628906-6.199219l-113.089843-113.089844c-7.941407 10.402344-14.832031 21.566407-20.570313 33.324219v.089844c-1.527344 3.144531-2.964844 6.378906-4.3125 9.613281-.539062 1.257813-1.078125 2.605469-1.527344 3.863281-.71875 1.796875-1.4375 3.589844-2.15625 5.476563s-1.257812 3.683593-1.882812 5.660156c-.449219 1.257813-.808594 2.515625-1.257812 3.773437-.628907 2.15625-1.257813 4.222657-1.796876 6.375-.269531 1.167969-.628906 2.246094-.898437 3.324219-.359375 1.617188-.71875 3.144531-1.078125 4.671875l17.515625 3.054688c4.765625.640625 8.183594 4.921875 7.75 9.710937-.433594 4.789063-4.5625 8.390625-9.367187 8.164063-.511719-.019532-1.023438-.082032-1.527344-.179688l-17.425782-3.054687c-.179687 1.527343-.449218 2.964843-.628906 4.492187-.179687 1.796875-.269531 3.59375-.449218 5.480469-.089844 1.613281-.269532 3.230469-.359376 4.847656-.179687 3.503907-.269531 7.007813-.269531 10.601563.023438 8.5.59375 16.992187 1.707031 25.417968l17.425782-3.054687c4.886718-.867187 9.550781 2.390625 10.417968 7.277344.871094 4.886719-2.386718 9.550781-7.273437 10.417969l-17.515625 3.054687c3.734375 16.609375 9.59375 32.671875 17.425781 47.789063l15.359375-8.894532c4.316406-2.480468 9.824219-.992187 12.304688 3.324219 2.480468 4.316406.992187 9.824219-3.320313 12.304687l-15.273437 8.804688c9.171875 14.324219 20.164062 27.398438 32.699218 38.894531l11.316407-13.476562c1.96875-2.726563 5.292969-4.128907 8.621093-3.628907 3.324219.5 6.09375 2.816407 7.171876 6.003907 1.078124 3.183593.289062 6.707031-2.050782 9.125l-11.316406 13.5625c13.496094 10.339843 28.253906 18.910156 43.921875 25.511719l6.109375-16.707032c1.710938-4.664062 6.878906-7.058594 11.542969-5.347656 4.664062 1.714844 7.054687 6.878906 5.34375 11.542969l-6.109375 16.617187c16.25 5.128906 33.101562 8.089844 50.125 8.804688v-17.695313c0-4.960937 4.019531-8.984375 8.980468-8.984375 4.960938 0 8.984376 4.023438 8.984376 8.984375v17.695313c17.019531-.714844 33.875-3.675782 50.121093-8.804688l-6.109375-16.617187c-1.695312-4.6875.714844-9.863281 5.390625-11.585938 4.664063-1.683593 9.808594.726563 11.496094 5.390625l6.109375 16.707032c15.667969-6.601563 30.429688-15.171876 43.925781-25.511719l-11.320312-13.5625c-2.335938-2.417969-3.128907-5.941407-2.050781-9.125 1.078124-3.1875 3.847656-5.503907 7.175781-6.003907 3.324219-.5 6.652343.902344 8.621093 3.628907l11.316407 13.476562c12.535156-11.496093 23.523437-24.570312 32.695312-38.894531l-15.269531-8.804688c-2.792969-1.601562-4.515625-4.574218-4.523438-7.796874-.003906-3.21875 1.707032-6.199219 4.492188-7.8125 2.785156-1.617188 6.222656-1.625 9.011719-.019532l15.363281 8.894532c7.832031-15.117188 13.6875-31.179688 17.425781-47.789063l-17.515625-3.054687c-3.164062-.558594-5.785156-2.765626-6.878906-5.785157-1.09375-3.015625-.492188-6.390625 1.574219-8.847656 2.066406-2.453125 5.285156-3.621094 8.445312-3.0625l17.429688 3.054687c1.113281-8.425781 1.683593-16.917968 1.703125-25.417968 0-3.59375-.089844-7.097656-.269532-10.601563-.089843-1.527343-.269531-3.054687-.359374-4.488281-.179688-1.976562-.269532-3.953125-.535157-5.929688-.089843-1.527343-.359375-2.964843-.539062-4.402343l-17.429688 3.054687c-.5.097656-1.011719.160156-1.523437.179688-4.804688.226562-8.933594-3.375-9.367188-8.164063-.433594-4.789062 2.980469-9.070312 7.75-9.710937l17.515625-3.054688c-.359375-1.347656-.628906-2.695312-.988281-4.132812s-.71875-2.964844-1.167969-4.398438c-.449219-1.796875-.988281-3.59375-1.527343-5.390625-.539063-1.796875-1.078126-3.324219-1.617188-5.03125-.449219-1.527343-.988281-3.054687-1.527344-4.582031-.808594-2.246094-1.707031-4.488281-2.605468-6.644531-.359376-.988281-.71875-1.886719-1.078126-2.875-1.347656-3.234375-2.875-6.558594-4.398437-9.703125-2.605469-5.296875-5.390625-10.507813-8.355469-15.449219-3.730468-6.214844-7.808594-12.210937-12.214844-17.964844l-113.089843 113.089844c.34375 2.050781.550781 4.121094.628906 6.199219-.078125 2.074218-.285156 4.144531-.628906 6.195312zm0 0"/><path d="m207.046875 288.449219c-2.566406 2.195312-3.679687 5.640625-2.890625 8.921875s3.351562 5.84375 6.632812 6.632812c3.28125.789063 6.726563-.328125 8.921876-2.890625l7.097656-7.003906c-5.0625-3.355469-9.402344-7.695313-12.757813-12.757813zm0 0"/><path d="m492.867188 53.378906-63.503907 63.503906c-3.53125 3.503907-9.226562 3.503907-12.757812 0l-6.285157-6.359374 69.828126-69.828126c2.335937-2.253906 3.269531-5.59375 2.449218-8.734374-.820312-3.140626-3.273437-5.59375-6.414062-6.417969-3.140625-.820313-6.480469.117187-8.738282 2.449219l-69.828124 69.832031-6.359376-6.359375c-1.726562-1.636719-2.703124-3.910156-2.695312-6.289063.011719-2.398437.980469-4.695312 2.695312-6.378906l63.507813-63.503906c3.480469-3.503907 3.480469-9.164063 0-12.664063-3.53125-3.503906-9.226563-3.503906-12.757813 0l-63.488281 63.503906c-.792969.828126-1.542969 1.695313-2.246093 2.605469-.730469.886719-1.363282 1.851563-1.882813 2.875-1.171875 1.90625-2.078125 3.960938-2.695313 6.105469-.730468 2.417969-1.09375 4.933594-1.078124 7.457031.019531 7.140625 2.859374 13.984375 7.902343 19.042969l12.667969 12.753906 12.753906 12.667969c5.066406 5.015625 11.910156 7.824219 19.042969 7.8125 2.515625-.011719 5.019531-.34375 7.453125-.988281.898438-.269532 1.796875-.628906 2.695312-.988282.136719-.019531.261719-.082031.359376-.179687.988281-.449219 2.066406-.988281 3.054687-1.527344.808594-.449219 1.617187-.988281 2.425781-1.527343 1.078125-.792969 2.101563-1.660157 3.054688-2.601563l16.167968-16.078125 47.335938-47.429688c3.503906-3.53125 3.503906-9.222656 0-12.753906-3.503906-3.484375-9.160156-3.484375-12.664062 0zm0 0"/><path d="m29.203125 34.34375c-17.527344 17.507812-1.960937 61.519531 16.8125 80.332031 17.554687 18.746094 46.972656 19.753907 65.761719 2.246094 17.507812-18.792969 16.503906-48.210937-2.246094-65.761719-18.808594-18.773437-62.824219-34.339844-80.328125-16.816406zm0 0"/></svg>